<svg width="217" height="76" viewBox="0 0 217 76" fill="none" xmlns="http://www.w3.org/2000/svg">
<g clip-path="url(#clip0)">
<path d="M89.989 74.9906C89.6293 74.9906 89.3395 74.7008 89.3395 74.3411V7.92352C89.3395 7.56381 89.6293 7.27403 89.989 7.27403C90.3487 7.27403 90.6385 7.56381 90.6385 7.92352V74.3411C90.6385 74.7008 90.3487 74.9906 89.989 74.9906Z" fill="#002664"/>
<path d="M19.085 58.0542L8.1536 45.2243H3.52725V65.3084H8.03369V52.5085L18.9251 65.3084H23.5814V45.2243H19.085V58.0542ZM62.3608 45.2243L59.3732 58.0841L56.2356 45.2243H51.919L48.7316 57.9343L45.8339 45.2243H41.1176L46.3435 65.2984H50.9898L54.0574 52.5985L57.1749 65.2984H61.7413L61.7913 65.1286L67.0471 45.2243H62.3608Z" fill="#002664"/>
<path d="M3.04759 71.4638V71.4438C3.04759 69.7052 4.37654 68.2263 6.25506 68.2263C7.33421 68.2263 8.00368 68.5261 8.64318 69.0657L7.95372 69.895C7.46411 69.4953 6.99448 69.2355 6.2051 69.2355C5.05601 69.2355 4.18669 70.2348 4.18669 71.4238V71.4438C4.18669 72.7228 5.02603 73.662 6.29503 73.662C6.88456 73.662 7.41415 73.4722 7.79385 73.1924V72.0333H6.21509V71.0841H8.863V73.692C8.25348 74.2116 7.37418 74.6613 6.26505 74.6613C4.32658 74.6613 3.04759 73.2723 3.04759 71.4638Z" fill="#002664"/>
<path d="M9.52249 71.4638V71.4438C9.52249 69.6952 10.8714 68.2263 12.7799 68.2263C14.6884 68.2263 16.0174 69.6752 16.0174 71.4238V71.4438C16.0174 73.1924 14.6684 74.6613 12.7599 74.6613C10.8514 74.6613 9.52249 73.2124 9.52249 71.4638ZM14.8783 71.4638V71.4438C14.8783 70.2347 13.999 69.2355 12.7599 69.2355C11.5209 69.2355 10.6616 70.2248 10.6616 71.4238V71.4438C10.6616 72.6528 11.5409 73.652 12.7699 73.652C14.0189 73.652 14.8783 72.6728 14.8783 71.4638Z" fill="#002664"/>
<path d="M15.9474 68.3363H17.1465L19.025 73.1125L20.8835 68.3363H22.0726L19.4846 74.6013H18.5254L15.9474 68.3363Z" fill="#002664"/>
<path d="M22.802 68.3363H27.4084V69.3155H23.9011V70.9342H27.0187V71.9135H23.9011V73.5721H27.4583V74.5514H22.802V68.3363Z" fill="#002664"/>
<path d="M28.5175 68.3363H31.2853C32.0647 68.3363 32.6842 68.5661 33.0739 68.9558C33.4036 69.2955 33.5835 69.7552 33.5835 70.2947V70.3147C33.5835 71.3339 32.974 71.9434 32.1047 72.1932L33.7833 74.5414H32.4944L30.9756 72.3831H29.6066V74.5514H28.5175V68.3363ZM31.2054 71.4238C31.9848 71.4238 32.4844 71.0142 32.4844 70.3847V70.3647C32.4844 69.6952 32.0047 69.3355 31.1954 69.3355H29.6066V71.4238H31.2054Z" fill="#002664"/>
<path d="M34.5627 68.3363H35.5719L38.8993 72.6329V68.3363H39.9784V74.5514H39.0592L35.6319 70.1349V74.5514H34.5627V68.3363Z" fill="#002664"/>
<path d="M41.0775 68.3363H42.2466L44.1351 71.274L46.0236 68.3363H47.1927V74.5514H46.1036V70.0949L44.1351 73.0226H44.1051L42.1567 70.1149V74.5514H41.0775V68.3363Z" fill="#002664"/>
<path d="M48.2319 68.3363H52.8383V69.3155H49.3211V70.9342H52.4386V71.9135H49.3211V73.5721H52.8882V74.5514H48.2319V68.3363Z" fill="#002664"/>
<path d="M53.9574 68.3363H54.9766L58.304 72.6329V68.3363H59.3731V74.5514H58.4638L55.0365 70.1349V74.5514H53.9574V68.3363Z" fill="#002664"/>
<path d="M62.2109 69.3555H60.2424V68.3363H65.2785V69.3555H63.31V74.5514H62.2109V69.3555Z" fill="#002664"/>
<path d="M24.8304 62.5107L27.4783 59.3332C29.3169 60.852 31.2354 61.8113 33.5735 61.8113C35.4121 61.8113 36.5212 61.0819 36.5212 59.8928V59.8328C36.5212 58.6937 35.8217 58.1142 32.4144 57.2349C28.3077 56.1857 25.6498 55.0466 25.6498 50.9998V50.9399C25.6498 47.2428 28.6174 44.7947 32.7941 44.7947C35.7618 44.7947 38.2998 45.724 40.3681 47.3927L38.04 50.77C36.2314 49.521 34.4528 48.7616 32.7342 48.7616C31.0155 48.7616 30.1162 49.551 30.1162 50.5402V50.6001C30.1162 51.9391 30.9856 52.3787 34.5128 53.278C38.6495 54.3572 40.9777 55.846 40.9777 59.3932V59.4531C40.9777 63.4999 37.8901 65.7782 33.4836 65.7782C30.396 65.7682 27.2785 64.699 24.8304 62.5107Z" fill="#002664"/>
<path d="M70.4844 31.1953C70.4644 30.266 69.7549 29.6465 69.3453 29.3068C68.9356 28.9671 67.0371 27.5881 63.4699 25.5098C63.7497 25.1501 63.8596 24.9602 64.1294 24.5905C65.4184 22.7719 66.5974 20.8934 67.167 18.7251C67.3069 18.1756 67.5667 17.0065 67.3468 16.407C67.077 15.6775 66.4376 15.2179 65.7781 15.038C64.2493 14.6284 58.7636 14.9581 58.324 14.9981C58.3439 13.3594 58.284 10.6715 57.6945 7.94365C57.5446 7.33413 57.2848 6.38488 56.6053 6.1051C55.4262 5.64546 54.1373 6.28496 53.0981 6.76458C51.6792 7.41407 50.63 7.93366 49.1212 8.72303C48.4218 6.26497 47.6923 3.9468 47.4425 3.36726C47.2327 2.9376 46.9629 2.15822 46.1336 1.99834C45.2942 1.83847 44.8346 2.16821 44.4249 2.428C43.7055 2.86766 40.558 5.10589 39.5088 5.96521C38.7994 4.79613 38.3697 3.96679 37.6902 2.89763C37.4305 2.48796 36.751 1.37883 36.2614 0.879226C35.9916 0.609439 35.7018 0.429581 35.2622 0.429581C34.8425 0.429581 34.5427 0.619431 34.2829 0.879226C33.7933 1.36884 33.1139 2.48796 32.8541 2.89763C32.1846 3.96679 31.7449 4.79613 31.0355 5.9752C29.9863 5.10589 26.8388 2.87765 26.1194 2.438C25.7197 2.1782 25.2601 1.83847 24.4207 1.99834C23.6014 2.15822 23.3216 2.9376 23.1417 3.35727C22.8819 3.9468 22.1525 6.25498 21.4631 8.71304C19.9443 7.93366 18.8951 7.40408 17.4762 6.75459C16.437 6.27497 15.148 5.63547 13.969 6.1051C13.2995 6.38488 13.0297 7.32414 12.8798 7.94365C12.2903 10.6715 12.2303 13.3594 12.2503 14.9981C11.8107 14.9581 6.31501 14.6184 4.79621 15.038C4.13673 15.2179 3.49724 15.6775 3.22745 16.407C3.00762 17.0065 3.25743 18.1756 3.40731 18.7251C3.97686 20.8934 5.15593 22.7719 6.44491 24.5905C6.70471 24.9602 6.82461 25.1501 7.10439 25.5098C3.53721 27.5781 1.6387 28.9671 1.22903 29.3068C0.819352 29.6465 0.109912 30.266 0.0899275 31.1953C0.0799354 31.605 0.129896 31.9447 0.499604 32.4743C1.17907 33.4335 4.96608 37.0707 13.4494 38.3696C11.9905 39.4288 12.2903 40.7478 12.5001 41.2773C12.67 41.697 13.0797 42.1766 13.909 42.6363C15.238 43.3657 16.8867 43.5355 18.2956 43.5655C20.304 43.6055 22.4223 43.1858 24.3907 42.7861C26.2693 42.4064 28.2277 41.6271 30.1462 41.5371C31.2653 41.4872 32.3944 41.5072 33.5135 41.5971C33.9032 41.6271 34.4128 41.687 35.3121 41.687C36.1015 41.687 36.691 41.6171 37.0807 41.5871C38.1998 41.4972 39.319 41.4772 40.4481 41.5271C42.3666 41.6171 44.325 42.3865 46.2035 42.7762C48.172 43.1758 50.2803 43.5955 52.2987 43.5555C53.6976 43.5256 55.3463 43.3557 56.6852 42.6263C57.5146 42.1766 57.9243 41.687 58.0941 41.2673C58.314 40.7378 58.6037 39.4188 57.1449 38.3596C65.6282 37.0607 69.4152 33.4235 70.0947 32.4643C70.4544 31.9447 70.4944 31.605 70.4844 31.1953Z" fill="white"/>
<path d="M48.2618 13.0094C48.4417 13.7588 49.341 18.4052 49.341 23.2713C49.341 26.7985 48.9113 29.9261 48.072 32.574C47.1827 35.3618 45.494 37.1604 44.0751 38.2395C47.7023 38.1196 50.9597 35.8714 53.2579 31.8645C56.2555 26.6187 56.895 20.0239 56.995 15.2077C57.1049 9.72201 56.6952 8.42304 56.5353 7.89346C56.3754 7.36387 56.1556 7.14405 55.686 7.15404C54.7567 7.17402 50.8598 8.91265 47.2127 11.5206C47.7223 11.7904 48.082 12.26 48.2618 13.0094Z" fill="#D7153A"/>
<path d="M38.3397 38.9792C40.9276 38.9292 45.2143 36.8309 46.7031 32.1246C47.4925 29.6566 47.7722 27.1985 47.9021 23.2616C48.052 18.5353 47.0928 13.9989 47.0428 13.7291C46.9729 13.3794 46.843 12.8398 46.4033 12.7499C45.9936 12.67 45.594 13.1196 45.3342 13.3295C45.0744 13.5393 38.7294 19.0849 35.9716 25.9395C35.462 27.3584 34.5827 28.8272 34.5527 33.2138C34.5427 34.7925 34.7026 36.5611 35.4919 37.5503C35.9216 38.1299 36.741 39.0092 38.3397 38.9792Z" fill="#D7153A"/>
<path d="M47.9122 9.32245C47.2027 6.04504 46.5233 3.8168 46.5133 3.79681C46.3634 3.39713 46.1536 3.09737 45.8338 3.03741C45.4841 2.97746 45.2643 3.06739 44.9146 3.32718C44.4649 3.65692 41.3074 6.14496 40.2782 7.00428C41.3374 8.96274 42.1867 11.4008 42.8762 13.3493C44.4449 12.1202 45.3742 11.0311 47.9122 9.32245Z" fill="#D7153A"/>
<path d="M66.1778 17.526C66.2078 17.1662 66.1778 16.7366 66.0279 16.5167C65.828 16.217 65.5683 16.0771 64.9288 15.9972C63.6498 15.8373 58.324 16.3369 58.324 16.3369C58.274 18.6051 58.0842 20.7534 57.7544 22.7218C59.2932 23.3114 60.7421 23.9109 62.3408 24.7003C65.4683 20.7634 66.1078 18.2354 66.1778 17.526Z" fill="#D7153A"/>
<path d="M69.0755 31.2151C69.0555 30.6955 68.8157 30.2658 67.9563 29.6963C66.4176 28.6671 62.5106 26.0891 57.4846 24.1906C56.8451 27.4181 55.8459 30.2359 54.507 32.574C53.128 34.9921 51.3495 36.9006 49.3211 38.1196C55.4562 37.7 60.6021 36.7507 64.3092 34.9621C68.5459 32.9238 69.1054 31.8946 69.0755 31.2151Z" fill="#D7153A"/>
<path d="M55.5462 39.1091C54.527 39.1391 53.7376 39.3089 52.0489 39.5887C50.69 39.8185 49.6308 39.8885 48.3618 39.8585C47.6224 39.8385 45.9737 39.8185 45.9737 39.8185C45.2043 39.7985 44.325 39.7786 43.4457 39.7786C41.6171 39.7786 39.259 39.8485 37.1906 40.428C37.0807 40.458 36.9508 40.498 36.9608 40.6179C36.9708 40.7178 37.1307 40.7178 37.2906 40.7178C37.4504 40.7178 38.9792 40.6079 39.7286 40.6079C42.4465 40.6079 44.295 41.0775 46.0836 41.5272C47.7723 41.9568 49.361 42.3565 51.5693 42.3565C53.9074 42.3565 55.9259 42.0568 56.6753 41.2274C56.9251 40.9476 57.1849 40.428 57.045 39.9484C56.8851 39.3689 56.4554 39.0891 55.5462 39.1091Z" fill="#D7153A"/>
<path d="M17.3063 31.8547C19.6045 35.8616 22.862 38.1198 26.4891 38.2297C25.0802 37.1505 23.3915 35.352 22.4922 32.5642C21.6529 29.9163 21.2232 26.7887 21.2232 23.2615C21.2232 18.3954 22.1225 13.749 22.3024 12.9996C22.4823 12.2502 22.842 11.7806 23.3616 11.5108C19.6645 8.77295 15.8075 7.16422 14.8882 7.14424C14.4186 7.13425 14.1988 7.34408 14.0389 7.88365C13.879 8.41324 13.4694 9.71221 13.5793 15.1979C13.6592 20.0141 14.3087 26.6089 17.3063 31.8547Z" fill="#D7153A"/>
<path d="M25.2401 13.3391C24.9803 13.1293 24.5806 12.6696 24.171 12.7596C23.7313 12.8495 23.6014 13.3891 23.5315 13.7388C23.4715 14.0086 22.5123 18.545 22.6721 23.2713C22.802 27.2082 23.0718 29.6662 23.8712 32.1343C25.36 36.8405 29.6866 38.9589 32.2845 38.9589C32.2845 38.9589 33.024 38.9789 33.7434 38.6991C33.9532 38.6191 34.1631 38.4992 34.3929 38.3494C34.203 38.0896 34.0332 37.7998 33.8733 37.48C33.3637 36.4309 33.1039 35.1519 33.0939 33.5631C33.0639 29.1766 34.6027 25.8792 34.6327 25.7893C31.8649 18.9247 25.4899 13.5589 25.2401 13.3391Z" fill="#D7153A"/>
<path d="M35.2821 23.7311C37.1107 19.9341 39.8086 16.8065 41.827 14.7881C40.568 10.1418 36.9408 3.53702 35.8017 1.9183C35.6319 1.68848 35.502 1.52861 35.2721 1.52861C35.0323 1.52861 34.9224 1.68848 34.7526 1.9183C33.6135 3.53702 29.9863 10.1418 28.7273 14.7881C30.7557 16.8065 33.4436 19.9341 35.2821 23.7311Z" fill="#D7153A"/>
<path d="M30.2761 7.00441C29.2469 6.14509 26.0894 3.65705 25.6397 3.32731C25.29 3.07751 25.0802 2.97759 24.7204 3.03754C24.4207 3.09749 24.2009 3.39725 24.051 3.79694C24.041 3.80693 23.3615 6.04516 22.6521 9.32258C25.1801 11.0312 26.1193 12.1204 27.6781 13.3494C28.3776 11.4009 29.2269 8.96286 30.2761 7.00441Z" fill="#D7153A"/>
<path d="M8.22346 24.7104C9.83219 23.9111 11.2711 23.3115 12.8098 22.732C12.4901 20.7636 12.3002 18.6153 12.2403 16.347C12.2403 16.347 6.9145 15.8474 5.63551 16.0073C4.99601 16.0872 4.73622 16.2271 4.53637 16.5269C4.38649 16.7467 4.35651 17.1664 4.38649 17.5361C4.45644 18.2356 5.09593 20.7636 8.22346 24.7104Z" fill="#D7153A"/>
<path d="M16.0573 32.5842C14.7184 30.2461 13.7192 27.4183 13.0797 24.2008C8.05363 26.0993 4.14672 28.6773 2.60793 29.7065C1.7586 30.276 1.51879 30.7057 1.48881 31.2253C1.45884 31.8948 2.0184 32.9239 6.25505 34.9723C9.96213 36.7609 15.1181 37.7102 21.2432 38.1298C19.2148 36.9008 17.4362 35.0023 16.0573 32.5842Z" fill="#D7153A"/>
<path d="M33.3736 40.4378C31.2953 39.8583 28.9371 39.7884 27.1186 39.7884C26.2393 39.7884 25.3699 39.8083 24.5906 39.8283C24.5906 39.8283 22.9419 39.8483 22.2024 39.8683C20.9434 39.8983 19.8843 39.8283 18.5154 39.5985C16.8167 39.3187 16.0373 39.1489 15.0181 39.1189C14.0988 39.0989 13.6692 39.3787 13.5093 39.9782C13.3794 40.4478 13.6292 40.9674 13.879 41.2572C14.6284 42.0865 16.6468 42.3863 18.985 42.3863C21.1932 42.3863 22.792 41.9866 24.4707 41.557C26.2592 41.1073 28.1178 40.6377 30.8256 40.6377C31.575 40.6377 33.0938 40.7476 33.2637 40.7476C33.4236 40.7476 33.5835 40.7476 33.5935 40.6477C33.6234 40.5078 33.4835 40.4678 33.3736 40.4378Z" fill="#D7153A"/>
<path d="M111.052 56.4452H119.156C121.444 56.4452 123.233 57.1247 124.402 58.2638C125.361 59.253 125.911 60.6019 125.911 62.1907V62.2406C125.911 65.2283 124.122 67.0169 121.594 67.7463L126.5 74.6309H122.703L118.237 68.2959H114.24V74.6309H111.042V56.4452H111.052ZM118.926 65.4581C121.214 65.4581 122.663 64.259 122.663 62.4205V62.3705C122.663 60.4221 121.264 59.3529 118.896 59.3529H114.25V65.4581H118.926Z" fill="#002664"/>
<path d="M127.679 67.8161V67.7661C127.679 63.8392 130.457 60.6217 134.384 60.6217C138.75 60.6217 140.959 64.049 140.959 67.9959C140.959 68.2857 140.929 68.5655 140.909 68.8752H130.827C131.166 71.1135 132.745 72.3525 134.774 72.3525C136.302 72.3525 137.402 71.7829 138.491 70.7138L140.339 72.3525C139.04 73.9113 137.252 74.9205 134.724 74.9205C130.747 74.9405 127.679 72.0527 127.679 67.8161ZM137.841 66.8069C137.631 64.7785 136.442 63.1997 134.364 63.1997C132.445 63.1997 131.086 64.6785 130.807 66.8069H137.841Z" fill="#002664"/>
<path d="M141.398 60.9117H144.776L148.463 70.9937L152.18 60.9117H155.477L149.862 74.7308H147.034L141.398 60.9117Z" fill="#002664"/>
<path d="M155.837 67.8161V67.7661C155.837 63.8392 158.615 60.6217 162.542 60.6217C166.908 60.6217 169.116 64.049 169.116 67.9959C169.116 68.2857 169.086 68.5655 169.067 68.8752H158.984C159.324 71.1135 160.903 72.3525 162.931 72.3525C164.46 72.3525 165.559 71.7829 166.648 70.7138L168.497 72.3525C167.198 73.9113 165.409 74.9205 162.881 74.9205C158.905 74.9405 155.837 72.0527 155.837 67.8161ZM165.999 66.8069C165.789 64.7785 164.6 63.1997 162.522 63.1997C160.603 63.1997 159.244 64.6785 158.964 66.8069H165.999Z" fill="#002664"/>
<path d="M171.505 60.9117H174.652V63.0201C175.531 61.7511 176.81 60.6319 178.939 60.6319C182.026 60.6319 183.825 62.7103 183.825 65.8778V74.6309H180.677V66.837C180.677 64.7087 179.608 63.4897 177.74 63.4897C175.921 63.4897 174.652 64.7587 174.652 66.897V74.6409H171.505V60.9117Z" fill="#002664"/>
<path d="M186.683 69.635V60.9019H189.83V68.6957C189.83 70.824 190.899 72.0231 192.768 72.0231C194.586 72.0231 195.855 70.7741 195.855 68.6458V60.9019H199.023V74.621H195.845V72.4927C194.966 73.7917 193.687 74.9108 191.559 74.9108C188.471 74.9108 186.683 72.8325 186.683 69.635Z" fill="#002664"/>
<path d="M201.411 67.8161V67.7661C201.411 63.8392 204.189 60.6217 208.116 60.6217C212.482 60.6217 214.69 64.049 214.69 67.9959C214.69 68.2857 214.66 68.5655 214.64 68.8752H204.558C204.898 71.1135 206.477 72.3525 208.505 72.3525C210.034 72.3525 211.133 71.7829 212.222 70.7138L214.071 72.3525C212.772 73.9113 210.983 74.9205 208.455 74.9205C204.479 74.9405 201.411 72.0527 201.411 67.8161ZM211.573 66.8069C211.363 64.7785 210.174 63.1997 208.096 63.1997C206.177 63.1997 204.818 64.6785 204.538 66.8069H211.573Z" fill="#002664"/>
</g>
<defs>
<clipPath id="clip0">
<rect width="216.839" height="76" fill="white"/>
</clipPath>
</defs>
</svg>
